<?xml version="1.0" standalone="no"?>
<!DOCTYPE svg PUBLIC "-//W3C//DTD SVG 20010904//EN"
 "http://www.w3.org/TR/2001/REC-SVG-20010904/DTD/svg10.dtd">
<svg version="1.0" xmlns="http://www.w3.org/2000/svg"
 width="1264.000000pt" height="922.000000pt" viewBox="0 0 1264.000000 922.000000"
 preserveAspectRatio="xMidYMid meet">

<g transform="translate(0.000000,922.000000) scale(0.100000,-0.100000)"
fill="#000000" stroke="none">
<path d="M4874 8018 c-17 -6 -53 -27 -80 -47 -124 -93 -197 -259 -239 -539
-21 -137 -32 -602 -16 -685 l11 -59 -74 -74 c-116 -116 -185 -230 -237 -390
-19 -58 -31 -75 -113 -157 -196 -196 -277 -355 -514 -1008 -103 -282 -144
-389 -230 -594 -66 -157 -69 -193 -25 -246 53 -62 389 -198 459 -185 45 9 80
54 93 118 5 29 17 91 26 138 33 171 115 489 165 633 53 156 188 507 199 520 4
4 20 -19 35 -51 l28 -59 -35 -69 c-177 -353 -190 -766 -32 -1080 l52 -104 -19
-27 c-88 -130 -148 -322 -148 -475 0 -66 -1 -70 -35 -99 -57 -51 -132 -172
-161 -262 -38 -119 -37 -279 3 -383 4 -12 -54 -14 -415 -14 -232 0 -423 3
-425 8 -3 4 0 23 7 42 9 29 17 35 51 42 21 5 50 19 63 31 27 25 26 40 -3 167
-11 52 -15 94 -10 136 l6 62 37 6 c20 3 96 11 167 17 165 14 172 15 185 39 16
29 -10 73 -89 150 -107 105 -319 203 -502 232 l-79 12 0 102 c0 55 -3 162 -7
237 l-6 137 35 0 c55 0 72 26 64 97 -18 156 -18 171 -2 232 9 34 16 71 16 80
0 32 -33 49 -115 60 -44 6 -81 16 -83 21 -2 5 -15 26 -29 47 -33 48 -62 113
-63 137 0 10 34 53 75 95 82 85 94 118 53 145 -44 28 -647 59 -1413 71 l-370
6 -114 -91 c-132 -106 -148 -123 -157 -169 -6 -31 -3 -45 21 -103 6 -14 -4
-22 -51 -43 -73 -32 -94 -51 -94 -85 0 -49 47 -71 176 -85 l61 -7 7 -73 c4
-45 2 -91 -5 -119 -10 -42 -16 -48 -65 -70 -156 -71 -384 -282 -384 -354 0
-45 22 -49 263 -55 126 -3 230 -7 232 -9 1 -2 5 -62 9 -134 l7 -132 -64 -6
c-51 -6 -70 -13 -88 -33 -24 -24 -24 -27 -24 -256 -1 -210 -3 -240 -24 -317
-30 -112 -26 -203 9 -232 21 -17 33 -18 97 -12 63 5 73 4 73 -10 0 -14 -43
-16 -458 -16 -505 0 -502 0 -502 -60 0 -54 3 -55 517 -60 l471 -5 -25 -75
c-21 -65 -23 -82 -14 -125 5 -27 6 -53 3 -56 -4 -4 -38 -17 -77 -29 -38 -12
-173 -63 -298 -112 -242 -96 -257 -105 -243 -162 8 -32 23 -36 291 -81 116
-20 256 -45 313 -55 57 -11 106 -20 109 -20 4 0 -48 -41 -115 -91 -107 -79
-122 -94 -122 -119 0 -37 28 -56 101 -70 118 -22 618 -144 830 -202 123 -33
240 -63 261 -65 33 -4 50 4 175 90 148 101 432 284 457 293 8 3 56 -23 113
-60 54 -36 106 -66 115 -66 10 0 108 30 217 66 172 56 203 63 223 53 13 -6
132 -86 265 -178 274 -187 311 -211 335 -211 10 0 75 33 145 73 71 41 233 129
360 196 l233 121 21 -21 c20 -20 28 -20 132 -15 62 4 346 15 632 26 286 11
745 29 1020 40 275 11 577 23 670 26 252 10 251 8 165 211 -55 129 -154 403
-147 409 1 1 22 -2 47 -7 88 -17 293 -23 351 -9 89 21 167 68 251 152 l78 78
488 0 488 0 28 -85 c27 -82 29 -115 6 -115 -6 0 -77 -32 -158 -71 -80 -39
-148 -67 -149 -62 -12 33 -48 75 -80 91 -83 43 -185 57 -398 57 -173 0 -212
-3 -288 -23 -97 -24 -152 -49 -181 -81 -26 -29 -39 -211 -31 -451 10 -308 28
-384 108 -461 84 -83 206 -120 387 -120 182 0 303 37 389 121 52 51 71 89 85
174 12 68 13 71 42 73 60 4 90 14 127 42 l38 29 167 -78 c92 -43 232 -101 312
-130 80 -29 167 -64 193 -77 61 -30 86 -27 112 14 11 18 54 87 95 154 l75 120
35 -6 c57 -10 137 -55 354 -199 113 -75 215 -136 227 -136 11 0 61 27 111 60
99 67 363 198 558 279 l126 52 89 -32 c151 -53 134 -64 245 152 98 192 186
341 252 429 65 86 54 101 -112 149 -58 16 -170 52 -250 80 l-145 49 668 1
c440 1 675 5 688 11 25 14 28 95 3 104 -9 3 -348 6 -754 6 l-738 0 -16 40
c-19 48 -20 81 -4 165 l11 63 53 7 c85 10 88 17 95 229 l6 181 -34 133 c-18
74 -36 160 -40 191 l-6 58 49 8 c68 10 110 29 125 57 9 16 15 102 20 283 4
143 11 270 14 282 4 13 4 34 1 47 -8 32 -45 42 -184 52 l-103 7 3 36 c1 20 -1
72 -6 116 -6 51 -4 161 4 306 7 124 10 238 6 252 -11 45 -55 52 -311 51 -126
-1 -306 -6 -400 -13 -167 -11 -565 -25 -1060 -36 -137 -4 -260 -8 -272 -11
-13 -2 -29 -17 -37 -32 -15 -29 -40 -220 -51 -387 -4 -55 -15 -144 -26 -199
-24 -128 -10 -156 79 -156 22 0 53 -3 69 -6 29 -6 31 -10 38 -67 5 -34 8 -82
6 -107 -1 -25 -2 -132 -3 -237 -1 -106 -2 -193 -2 -193 -1 -1 -72 -5 -160 -10
-120 -6 -162 -12 -174 -24 -23 -22 -26 -109 -8 -211 22 -127 20 -197 -9 -295
-25 -84 -25 -85 -9 -170 9 -47 18 -95 20 -107 5 -26 46 -41 97 -35 l37 4 -35
-73 c-22 -47 -37 -97 -41 -136 l-7 -63 -449 0 c-387 0 -449 2 -445 14 22 56
30 114 30 201 -1 80 -6 116 -27 182 -29 89 -104 211 -160 260 -32 29 -33 31
-39 134 -8 153 -64 323 -145 442 l-19 27 52 104 c58 115 89 226 106 373 24
215 -30 492 -138 707 l-35 69 18 38 c9 22 20 39 24 39 5 0 27 -53 50 -117 114
-323 207 -703 250 -1024 11 -82 27 -163 36 -180 9 -18 30 -37 51 -45 31 -13
40 -13 77 -1 37 13 385 216 427 249 52 42 51 100 -5 197 -113 197 -202 407
-346 821 -168 481 -248 642 -375 758 -49 45 -58 59 -72 114 -41 161 -129 314
-250 434 l-73 72 10 52 c6 29 10 144 10 255 0 485 -71 788 -219 935 -31 31
-74 64 -96 75 -50 23 -152 31 -208 16 -108 -31 -223 -153 -286 -304 -34 -84
-74 -234 -91 -347 -6 -41 -13 -90 -16 -108 l-5 -33 -27 19 c-51 36 -151 82
-239 109 -79 24 -104 27 -248 27 -126 1 -175 -3 -229 -18 -89 -24 -196 -68
-259 -107 -27 -16 -51 -28 -53 -26 -3 2 -11 46 -19 98 -29 192 -68 337 -119
437 -62 121 -160 218 -255 250 -41 14 -144 14 -187 0z m162 -210 c42 -33 59
-55 98 -128 59 -112 107 -322 122 -532 6 -89 6 -95 -18 -123 -13 -17 -39 -51
-56 -76 -31 -45 -32 -46 -99 -53 -84 -9 -207 -39 -287 -72 -33 -13 -60 -24
-61 -24 -2 0 -5 37 -7 83 -6 98 7 395 22 510 26 189 87 358 151 411 39 33 95
35 135 4z m2023 -4 c64 -53 125 -222 151 -411 15 -115 28 -412 22 -510 -2 -46
-5 -83 -7 -83 -1 0 -28 11 -61 24 -80 33 -203 63 -287 72 -67 7 -69 8 -94 48
-14 23 -39 58 -56 79 -30 38 -30 39 -23 130 9 117 41 301 67 391 21 72 76 185
107 221 60 70 127 85 181 39z m-895 -634 c200 -51 371 -184 466 -361 43 -82
65 -96 158 -103 161 -13 366 -79 452 -146 25 -19 16 -20 -1260 -20 -1276 0
-1285 1 -1260 20 84 65 257 124 410 140 52 6 108 15 123 22 19 7 47 40 83 95
66 103 129 171 211 229 78 56 198 112 277 129 94 21 249 18 340 -5z m1270
-803 c49 -64 125 -256 126 -319 0 -5 -711 -8 -1581 -8 l-1581 0 7 33 c20 101
73 230 122 295 l24 32 1429 0 1429 0 25 -33z m-3234 -494 c0 -32 7 -97 16
-144 l16 -86 -32 -74 c-70 -165 -210 -532 -249 -652 -52 -160 -111 -395 -147
-581 -15 -77 -30 -145 -34 -149 -13 -15 -300 101 -300 122 0 5 16 47 36 93 70
163 138 337 236 608 131 363 200 535 260 651 51 98 170 269 188 269 6 0 10
-25 10 -57z m3357 -45 c-11 -124 -58 -261 -134 -391 -54 -92 -54 -111 1 -204
47 -81 92 -194 123 -312 21 -80 26 -120 26 -241 1 -208 -33 -335 -131 -490
-66 -105 -65 -127 8 -223 53 -71 94 -165 116 -265 9 -45 16 -84 13 -86 -2 -2
-29 0 -59 6 -90 17 -310 4 -417 -25 l-93 -24 0 83 c0 45 5 117 11 160 6 42 8
87 5 100 -17 66 -381 267 -591 327 -102 29 -435 33 -1050 13 -275 -9 -546 -17
-601 -19 -84 -2 -106 -5 -123 -21 -28 -26 -27 -47 15 -184 31 -104 104 -385
104 -403 0 -4 -64 -5 -142 -2 -80 3 -167 1 -198 -5 -30 -6 -57 -8 -59 -6 -3 2
4 41 13 86 22 100 63 194 116 265 73 96 74 118 8 223 -96 151 -132 282 -132
480 0 212 45 375 164 590 16 30 30 66 30 79 0 14 -18 54 -40 91 -73 121 -126
275 -137 398 l-6 72 1583 0 1583 0 -6 -72z m244 29 c67 -107 132 -262 249
-597 120 -345 202 -546 291 -719 44 -85 76 -157 72 -161 -15 -14 -316 -190
-319 -187 -2 2 -12 66 -23 143 -49 347 -150 733 -292 1118 l-59 159 20 97 c11
54 20 119 20 144 0 25 3 46 8 46 4 0 19 -19 33 -43z m3234 -617 l0 -45 -395
-8 c-415 -8 -432 -10 -416 -53 6 -16 32 -17 407 -11 l400 7 -3 -32 -3 -33
-115 -6 c-63 -4 -275 -12 -470 -18 -509 -16 -889 -32 -935 -40 -31 -5 -41 -11
-43 -29 -2 -13 3 -24 12 -28 8 -3 95 -1 193 5 98 6 351 15 563 21 212 6 474
15 584 20 109 6 200 9 203 7 2 -2 0 -36 -3 -76 l-7 -71 -192 0 c-169 0 -194
-2 -199 -16 -14 -36 9 -41 205 -46 104 -3 192 -8 195 -11 9 -8 17 -105 11
-129 l-6 -23 -898 1 c-909 0 -1079 5 -1069 30 14 36 45 319 46 415 0 6 145 13
586 29 143 5 272 14 287 19 33 13 35 39 4 46 -23 6 -561 -9 -761 -22 l-108 -6
7 44 c4 24 8 45 9 45 2 3 537 24 876 35 184 6 385 14 445 18 61 5 218 8 350 7
l240 -1 0 -45z m-9020 -120 c357 -10 689 -26 754 -36 l34 -5 -40 -42 c-51 -53
-63 -76 -63 -122 l0 -36 -47 5 c-27 3 -228 8 -448 11 -220 3 -436 8 -481 11
-92 7 -127 -4 -122 -39 3 -22 4 -22 318 -29 173 -4 424 -11 557 -14 l243 -6
24 -45 25 -45 -67 9 c-37 4 -418 7 -847 5 -429 -2 -818 0 -864 3 l-84 7 41 18
c57 26 63 56 27 127 l-28 55 34 34 34 33 405 -9 c223 -5 419 -12 435 -15 44
-7 90 8 90 30 0 28 -35 33 -288 40 -128 3 -305 8 -395 11 l-162 6 35 28 36 29
242 -5 c133 -3 404 -9 602 -14z m585 -470 c256 -18 376 -34 371 -51 -1 -7 -5
-40 -8 -71 l-6 -58 -76 0 c-42 1 -177 5 -300 9 -123 5 -235 5 -250 2 -19 -6
-26 -14 -26 -32 l0 -24 250 -7 c138 -5 286 -11 330 -15 78 -8 80 -9 83 -35 3
-22 -1 -28 -15 -28 -140 1 -675 24 -828 35 -337 26 -640 43 -852 51 l-203 6 7
26 c3 15 6 39 6 54 l0 28 156 1 c185 2 216 6 216 34 0 28 -31 32 -223 34 -150
1 -163 2 -160 19 3 16 34 17 438 22 830 10 936 10 1090 0z m7369 -141 c-24
-17 -103 -91 -175 -164 l-130 -132 -35 55 c-19 31 -77 100 -129 154 -61 63
-90 100 -82 103 8 3 53 5 100 5 l87 0 63 -56 c71 -64 83 -57 19 11 l-44 45 55
0 c39 0 62 -6 84 -21 29 -21 52 -19 30 3 -24 24 -10 28 95 28 l106 0 -44 -31z
m990 21 c189 -5 345 -11 346 -12 1 -2 0 -65 -3 -140 l-5 -138 -251 -1 c-138
-1 -264 -4 -281 -8 -32 -7 -46 -38 -24 -51 7 -5 87 -6 178 -3 91 3 214 2 274
-2 l107 -7 -1 -56 c-2 -103 -8 -115 -59 -124 -25 -5 -387 -10 -805 -13 -488
-3 -835 -9 -970 -18 -115 -8 -211 -13 -211 -13 -1 1 -5 58 -9 127 l-7 127 111
4 c84 2 114 7 127 19 14 15 14 18 -1 33 -13 13 -37 16 -120 16 l-104 0 6 63
c3 35 0 87 -6 116 -6 30 -10 56 -8 57 2 2 35 -18 74 -45 120 -84 264 -259 279
-337 7 -39 38 -66 64 -56 9 4 41 36 70 72 81 97 258 270 321 314 31 20 85 48
120 61 59 22 79 24 254 24 105 0 345 -4 534 -9z m-9409 -211 c316 -15 670 -44
645 -54 -260 -103 -365 -156 -523 -261 l-93 -63 -52 18 c-178 61 -422 100
-675 108 l-193 6 43 44 c82 85 190 160 287 199 62 26 69 26 561 3z m1317 -73
c1 0 5 -28 8 -61 l7 -60 -395 0 -395 0 67 26 c89 34 237 75 336 93 58 11 119
14 225 9 80 -3 146 -6 147 -7z m3438 -168 c70 -76 162 -208 217 -310 18 -33
42 -65 55 -71 26 -11 22 -12 202 53 63 22 114 39 115 38 1 -2 -1 -62 -4 -135
l-5 -132 -65 -41 c-320 -204 -397 -557 -167 -765 70 -64 194 -130 321 -171
l84 -28 17 -60 c21 -75 114 -331 148 -408 l25 -56 -71 -6 c-40 -3 -317 -15
-617 -26 -300 -12 -808 -32 -1130 -44 -322 -13 -586 -23 -587 -21 -2 1 8 39
22 86 34 119 72 315 86 445 l12 111 53 17 c96 30 227 103 291 161 154 139 176
350 57 546 -70 116 -226 238 -379 295 -38 15 -71 28 -73 29 -2 2 -18 72 -37
156 -19 85 -50 205 -69 267 l-33 112 106 1 c58 0 250 7 426 13 176 7 458 14
627 14 l306 2 67 -72z m-4230 15 l0 -28 250 4 c138 2 319 0 403 -4 149 -7 152
-8 152 -30 l0 -23 -202 -4 c-112 -3 -211 -8 -221 -13 -11 -4 -17 -16 -15 -29
3 -21 7 -21 221 -24 l217 -2 0 -92 0 -91 -47 7 c-49 6 -616 -13 -1118 -39
-159 -8 -356 -15 -437 -15 l-148 0 0 35 0 35 88 1 c116 2 146 9 150 36 4 28
-33 36 -152 32 l-91 -4 -3 53 c-3 46 -1 52 17 52 39 0 232 -41 330 -70 55 -17
110 -30 121 -30 12 0 73 34 135 76 85 56 333 194 349 194 1 0 2 -12 1 -27z
m4432 2 c116 -44 371 -184 348 -192 -49 -16 -203 -71 -215 -76 -11 -5 -27 14
-58 71 -24 43 -68 111 -98 150 -30 40 -52 72 -49 72 2 0 35 -11 72 -25z m4598
-217 c2 -2 5 -29 7 -60 l5 -58 -503 0 c-276 0 -509 -3 -518 -6 -18 -7 -21 -39
-5 -50 6 -3 241 -8 522 -10 282 -1 515 -3 518 -3 13 -2 17 -56 6 -63 -7 -4
-174 -8 -372 -8 -357 -1 -837 -13 -968 -26 -70 -7 -95 -24 -77 -54 7 -11 41
-12 212 -1 112 6 434 15 716 18 436 5 515 4 523 -8 5 -8 9 -38 9 -66 l0 -53
-32 0 c-61 0 -573 -31 -586 -35 -7 -3 -12 -15 -10 -27 3 -23 5 -23 138 -21 74
1 212 6 305 11 94 5 171 8 172 8 1 -1 5 -40 9 -87 8 -104 26 -95 -211 -109
-304 -19 -878 -17 -1821 6 l-242 6 -11 56 c-13 64 -14 102 -3 119 4 7 101 17
277 27 149 9 278 19 288 22 12 4 17 13 15 27 -3 21 -8 22 -88 22 -47 0 -170
-4 -275 -9 l-190 -9 3 95 c2 58 -3 128 -12 178 -24 125 -27 117 57 124 257 20
697 40 1027 45 345 6 1110 5 1115 -1z m-7955 -241 c47 -14 112 -38 144 -52 69
-30 183 -103 209 -132 18 -20 17 -20 -95 -32 -134 -15 -320 -52 -401 -80 l-59
-21 -46 39 c-102 84 -300 190 -482 257 l-105 39 95 6 c52 3 221 5 375 4 271
-1 283 -2 365 -28z m-1008 -31 c208 -54 208 -57 7 -52 -98 2 -183 -1 -192 -6
-20 -11 -22 -44 -4 -51 8 -3 137 -9 288 -13 202 -5 283 -11 309 -21 86 -36
257 -142 306 -190 57 -57 72 -61 127 -38 19 8 67 23 106 34 l71 20 0 -60 0
-59 -626 0 c-412 0 -632 -4 -645 -10 -10 -6 -19 -17 -19 -25 0 -37 27 -38 670
-32 l626 5 12 -44 c7 -24 12 -48 12 -53 0 -4 -60 -11 -132 -15 -73 -4 -218
-11 -323 -16 -156 -8 -1566 -40 -1767 -40 -54 0 -58 2 -58 23 0 12 3 32 6 45
l6 22 233 0 c195 0 235 2 245 15 10 12 10 18 0 30 -10 12 -46 15 -205 15 -106
0 -206 3 -223 6 -29 6 -31 9 -24 38 4 17 7 85 7 152 l0 121 211 6 c116 3 287
3 380 0 175 -6 214 0 214 33 0 32 -49 36 -432 32 l-378 -4 0 62 0 62 93 6 c50
3 234 10 407 17 173 6 317 13 319 15 2 2 57 4 122 4 102 0 136 -5 251 -34z
m2623 -192 c153 -29 286 -96 372 -187 84 -88 116 -178 99 -272 -10 -53 -85
-124 -177 -168 -154 -73 -390 -127 -558 -127 -78 0 -95 3 -149 30 -103 52
-170 147 -193 274 -31 169 66 364 217 433 90 41 229 47 389 17z m2770 1 c178
-49 302 -259 266 -451 -23 -127 -90 -222 -193 -274 -54 -27 -71 -30 -149 -30
-168 0 -404 54 -558 127 -92 44 -167 115 -177 168 -41 221 218 440 563 473 95
10 181 5 248 -13z m2345 -346 c421 -7 739 -8 890 -2 129 5 239 6 244 2 5 -4 5
-29 1 -54 l-7 -47 -620 3 c-588 3 -622 3 -632 -14 -9 -15 -7 -21 8 -33 16 -11
65 -14 250 -14 127 0 403 -3 612 -7 l381 -6 17 -51 c9 -28 38 -85 65 -126 l49
-75 -25 -7 c-21 -6 -155 -15 -513 -33 -132 -7 -157 -12 -165 -32 -15 -41 4
-43 355 -22 184 10 347 23 363 29 25 8 30 6 57 -32 35 -48 35 -46 14 -97 -18
-46 -35 -51 -158 -51 -44 0 -153 -5 -241 -10 -173 -11 -1125 -46 -1554 -57
-258 -6 -264 -6 -256 13 4 10 13 33 19 50 10 31 11 31 96 38 47 3 245 8 440
11 398 7 438 9 447 32 13 34 -24 43 -176 43 -163 0 -632 -16 -728 -26 l-61 -5
-11 53 c-6 29 -25 91 -41 138 -16 47 -30 108 -32 135 l-3 50 277 0 c233 0 280
2 292 15 10 10 12 20 6 30 -8 13 -53 15 -285 18 -151 2 -275 6 -275 9 0 3 16
39 36 78 l36 72 87 -3 c47 -2 381 -9 741 -15z m-6826 -216 c-3 -27 -8 -50 -10
-51 -1 -2 -197 -7 -435 -10 -402 -7 -433 -8 -443 -25 -23 -38 6 -42 290 -41
148 1 344 5 435 9 l166 7 7 -25 c3 -14 8 -32 12 -40 8 -23 -74 -28 -527 -28
-228 -1 -506 -4 -619 -8 l-205 -6 0 -25 0 -25 494 -3 c271 -1 582 2 690 7 117
5 200 5 206 -1 6 -5 15 -23 21 -41 9 -27 8 -39 -9 -74 -12 -24 -28 -43 -36
-43 -9 0 -83 -5 -166 -10 -157 -10 -1790 -14 -1806 -4 -5 3 -9 16 -9 29 0 28
0 28 275 44 94 5 178 13 188 17 11 4 17 15 15 28 -3 19 -9 21 -83 21 -44 -1
-153 -5 -242 -9 -90 -5 -163 -6 -163 -3 0 4 10 37 22 73 20 61 21 73 10 147
-6 44 -11 82 -9 83 1 2 257 7 567 13 578 11 1222 30 1229 37 2 2 35 4 73 4
l69 0 -7 -47z m1030 -197 c20 -25 33 -47 29 -49 -5 -3 -118 -52 -253 -110
-135 -58 -279 -120 -320 -139 l-75 -34 -120 38 c-66 22 -125 41 -132 43 -9 3
-7 16 7 47 27 60 25 83 -15 167 -19 40 -35 75 -35 77 0 2 197 4 439 4 l439 0
36 -44z m7594 -192 c2 -2 -32 -60 -76 -131 -44 -71 -112 -194 -152 -273 -40
-80 -74 -146 -75 -148 -2 -2 -46 10 -97 27 -330 105 -658 159 -1032 170 l-229
6 74 77 74 78 178 6 179 7 -32 -45 c-47 -67 -33 -76 20 -13 43 51 47 53 105
59 111 10 225 13 225 5 0 -5 -23 -20 -50 -34 -28 -14 -54 -36 -59 -48 -16 -44
-21 -77 -12 -77 5 0 12 13 16 29 8 36 29 55 79 71 22 7 52 26 67 42 26 29 29
30 148 35 66 3 121 3 121 0 0 -3 -15 -14 -34 -25 -29 -17 -36 -28 -41 -67 -6
-36 -13 -49 -35 -60 -32 -17 -46 -44 -29 -59 8 -8 13 -8 16 1 3 7 21 17 42 23
41 11 61 40 61 89 0 22 7 31 30 41 17 7 33 22 36 34 3 14 17 26 37 32 26 7 38
22 65 73 35 70 40 113 18 165 l-14 33 187 -60 c102 -34 188 -62 189 -63z
m-7412 44 c27 -14 67 -29 87 -33 40 -8 45 -16 22 -35 -12 -10 -21 -8 -50 10
-48 30 -57 17 -14 -20 l34 -29 -41 -41 -40 -41 -55 25 c-30 14 -63 26 -74 25
-11 0 8 -13 43 -29 34 -16 62 -32 62 -36 0 -4 -21 -30 -47 -58 -27 -28 -64
-71 -83 -95 l-36 -44 -34 18 c-19 10 -61 40 -93 66 -32 27 -63 49 -68 49 -30
0 70 -102 139 -141 23 -13 42 -27 42 -30 0 -4 -11 -37 -25 -73 -14 -37 -25
-78 -25 -93 0 -35 27 -63 60 -63 25 0 109 38 185 84 30 18 30 18 83 -14 29
-18 55 -31 58 -27 12 11 -7 43 -42 68 l-35 27 72 65 72 66 64 -50 c60 -46 93
-60 93 -40 0 7 -86 80 -120 101 -12 8 -6 19 35 60 27 27 52 50 56 50 4 0 29
-20 57 -45 28 -25 53 -41 57 -36 8 14 -18 52 -55 79 -16 13 -30 28 -30 35 0 7
18 30 39 52 l40 38 53 -20 c42 -16 54 -25 56 -45 3 -27 -28 -176 -60 -285
l-21 -72 -206 -107 c-113 -59 -286 -151 -384 -206 l-177 -98 -238 162 c-131
90 -238 167 -237 173 0 10 157 65 185 65 8 0 35 -14 59 -30 24 -17 72 -40 105
-52 47 -17 75 -36 121 -84 61 -63 91 -84 119 -84 26 0 18 13 -22 40 -20 13
-58 47 -84 76 -36 39 -62 56 -110 74 -60 22 -152 69 -146 75 2 2 57 20 123 40
121 36 155 55 155 84 -1 38 -41 64 -217 140 -174 75 -181 79 -155 91 55 25
518 223 552 236 19 7 37 12 40 11 3 -1 28 -14 56 -29z m574 -22 c0 -34 -14
-76 -24 -76 -7 0 -20 6 -29 13 -14 11 -14 16 -2 45 14 33 55 46 55 18z m-266
-128 c-60 -61 -152 -153 -204 -204 l-95 -93 -27 27 c-16 14 -28 32 -28 40 0 8
70 86 156 173 168 169 157 163 268 167 l40 2 -110 -112z m3740 52 c102 -12
176 -29 176 -40 0 -5 -14 -13 -31 -19 -23 -8 -39 -7 -67 4 -50 19 -153 35
-233 35 -82 0 -231 -25 -276 -47 -29 -13 -41 -14 -75 -4 -50 15 -41 25 39 46
124 32 316 42 467 25z m591 -62 c-19 -29 -35 -58 -35 -65 0 -22 31 -43 65 -43
18 0 64 -14 102 -31 37 -17 111 -44 163 -61 52 -16 121 -46 152 -65 62 -37
230 -88 257 -78 28 11 -26 42 -113 66 -44 11 -103 34 -132 50 -28 16 -95 40
-148 53 -52 13 -117 32 -143 43 l-48 18 250 6 c229 5 253 4 288 -13 21 -10 44
-18 51 -18 8 0 37 -16 65 -35 28 -20 51 -32 51 -27 0 15 -59 65 -97 82 l-38
17 155 7 c85 4 181 6 212 4 l57 -3 -106 -120 c-127 -145 -230 -281 -314 -416
-48 -78 -65 -99 -78 -93 -9 3 -88 33 -176 65 -209 78 -471 201 -466 220 11 44
12 130 2 167 -24 87 -111 151 -204 152 -34 0 -48 4 -45 13 3 11 281 157 300
157 5 0 -7 -24 -27 -52z m-7680 -27 c173 -6 167 -5 270 -77 49 -35 51 -36 131
-30 99 6 189 -6 286 -38 88 -29 117 -34 119 -21 2 12 -146 70 -216 85 -56 11
-122 15 -205 10 -56 -3 -106 15 -155 55 -19 15 0 16 245 13 l265 -3 159 -100
159 -99 -34 -14 c-19 -7 -127 -52 -240 -98 l-206 -85 -114 30 c-188 50 -372
88 -747 156 -196 36 -359 65 -362 66 -9 0 192 81 315 125 80 29 128 42 145 37
14 -3 97 -9 185 -12z m2120 -58 c178 -60 479 -182 471 -190 -4 -5 -838 -272
-871 -280 -14 -3 -82 38 -220 133 -110 75 -283 193 -383 261 l-184 123 214 -1
c202 0 211 -1 176 -16 -21 -8 -38 -19 -38 -24 0 -15 18 -10 73 19 47 24 65 28
187 33 74 3 194 5 265 5 l130 -2 180 -61z m5175 -521 c-12 -108 -25 -138 -77
-181 -75 -62 -130 -76 -303 -76 -137 0 -162 3 -210 23 -64 25 -124 72 -145
112 -23 44 -35 187 -35 419 0 182 2 212 14 208 151 -58 547 -54 722 7 l39 13
3 -216 c2 -119 -2 -258 -8 -309z m206 373 c50 -21 79 -101 56 -156 -6 -14 -14
-13 -74 10 l-68 26 0 68 c0 65 1 67 25 67 14 0 41 -7 61 -15z m-6228 -148
l121 -84 -137 -86 c-76 -47 -199 -129 -275 -180 l-138 -94 -82 24 c-137 39
-530 139 -742 188 -110 25 -206 48 -214 51 -19 6 192 164 220 164 26 0 348
-73 444 -100 89 -25 131 -25 192 1 60 26 95 21 170 -25 32 -19 77 -37 101 -41
61 -10 162 3 162 21 0 8 -10 14 -22 14 -157 3 -173 5 -242 39 -56 28 -65 36
-50 42 10 4 57 23 104 42 81 33 86 34 115 19 42 -21 123 -42 168 -42 20 0 37
-4 37 -10 0 -5 7 -10 15 -10 24 0 0 39 -28 44 -97 21 -168 40 -172 46 -3 4 26
19 63 33 37 14 67 26 68 26 0 1 55 -37 122 -82z m1680 61 c19 -19 14 -32 -17
-51 -40 -24 -41 -22 -24 23 17 43 22 47 41 28z m6161 -17 c16 -10 12 -13 -81
-46 -59 -21 -98 -65 -98 -111 0 -43 25 -46 33 -5 9 43 41 67 107 80 60 12 110
42 110 67 0 8 8 14 18 14 31 0 275 -30 280 -34 8 -9 -10 -27 -42 -40 -18 -8
-44 -26 -58 -40 -19 -21 -39 -29 -85 -36 -70 -10 -98 -22 -114 -51 -15 -30 -3
-36 24 -12 17 17 38 22 99 25 66 3 81 7 105 29 15 15 45 32 65 39 21 6 49 25
62 42 l24 31 114 -22 c62 -13 117 -25 122 -28 4 -3 -32 -22 -82 -43 -140 -59
-372 -176 -467 -235 l-86 -54 -172 113 c-206 135 -252 162 -322 191 l-54 22
41 49 c36 44 45 50 92 55 85 10 350 9 365 0z m-1664 -128 c38 -18 31 -33 -17
-33 -23 0 -28 4 -28 25 0 30 0 30 45 8z"/>
<path d="M5961 6351 c-20 -13 -9 -237 12 -259 22 -21 37 -6 37 38 0 37 11 50
46 50 7 0 24 -18 36 -40 23 -40 42 -55 59 -44 15 9 10 32 -15 72 -23 37 -23
38 -5 61 27 33 24 73 -6 101 -20 19 -39 25 -88 27 -34 2 -68 0 -76 -6z m123
-54 c25 -18 11 -43 -35 -61 -22 -9 -42 -16 -44 -16 -3 0 -5 20 -5 45 0 44 1
45 33 45 18 0 41 -6 51 -13z"/>
<path d="M6574 6336 c-10 -27 6 -144 22 -157 29 -24 37 4 28 88 -7 62 -13 78
-27 81 -9 2 -20 -4 -23 -12z"/>
<path d="M6695 6340 c-9 -15 4 -142 17 -157 5 -6 16 -9 24 -6 27 10 11 165
-18 171 -9 2 -19 -2 -23 -8z"/>
<path d="M5567 6333 c-3 -5 -13 -43 -23 -85 -10 -43 -22 -78 -26 -78 -5 0 -17
13 -26 30 -25 44 -39 44 -81 -1 -21 -23 -41 -38 -44 -33 -2 5 -15 42 -27 82
-16 57 -25 73 -38 70 -25 -5 -26 -41 -2 -116 40 -123 66 -139 119 -75 l31 38
31 -38 c33 -40 63 -48 77 -19 17 31 54 202 48 217 -6 16 -32 21 -39 8z"/>
<path d="M6228 6328 c-3 -7 0 -62 5 -121 8 -89 13 -109 28 -118 21 -11 26 -4
31 43 l3 28 79 -35 c44 -19 83 -32 88 -29 4 3 8 14 8 25 0 19 -26 34 -119 70
-24 10 -24 10 29 64 35 35 51 59 47 69 -11 27 -33 18 -91 -35 l-56 -51 0 35
c0 20 -3 42 -6 51 -7 19 -40 21 -46 4z"/>
<path d="M5704 6302 c-66 -53 -56 -170 16 -207 105 -54 210 58 155 165 -8 16
-25 36 -37 44 -30 21 -107 20 -134 -2z m116 -54 c26 -28 26 -72 0 -98 -26 -26
-51 -25 -84 1 -49 39 -26 119 35 119 16 0 37 -9 49 -22z"/>
<path d="M6714 6135 c-4 -9 -2 -21 4 -27 15 -15 44 -1 40 19 -4 23 -36 29 -44
8z"/>
<path d="M6584 6129 c-3 -6 0 -17 7 -25 18 -17 44 -2 36 20 -7 18 -33 21 -43
5z"/>
<path d="M5267 5822 c-32 -35 -21 -67 41 -121 81 -72 142 -70 142 4 0 26 -9
40 -47 72 -80 67 -108 76 -136 45z"/>
<path d="M6624 5827 c-11 -7 -42 -29 -67 -51 -38 -31 -47 -45 -47 -70 0 -75
61 -77 143 -5 62 55 74 91 39 122 -22 20 -39 21 -68 4z"/>
<path d="M4982 5701 c-161 -40 -207 -251 -75 -341 30 -21 49 -25 104 -25 59 0
73 4 110 30 114 81 114 250 -1 314 -43 24 -95 32 -138 22z"/>
<path d="M5848 5700 c-229 -39 -430 -173 -516 -345 -58 -116 -69 -270 -28
-386 64 -182 230 -327 446 -389 107 -31 289 -38 401 -15 325 65 544 296 542
570 -3 273 -223 498 -551 561 -79 15 -217 17 -294 4z m348 -184 c139 -45 252
-135 306 -244 19 -39 23 -63 23 -142 0 -118 -21 -167 -109 -256 -218 -219
-643 -219 -861 0 -87 87 -109 138 -110 251 0 77 4 98 27 148 56 118 213 229
373 262 103 21 250 13 351 -19z"/>
<path d="M5846 5339 c-49 -39 -31 -102 44 -145 36 -22 38 -37 5 -69 -37 -38
-91 -34 -138 10 -42 40 -68 44 -97 15 -28 -28 -25 -54 12 -95 68 -78 172 -98
262 -50 l46 24 46 -24 c90 -48 194 -28 262 50 37 41 40 67 12 95 -29 29 -55
25 -97 -15 -47 -44 -101 -48 -138 -10 -33 32 -31 47 5 69 75 43 93 106 44 145
-33 26 -60 26 -101 1 -33 -20 -33 -20 -65 0 -42 25 -69 25 -102 -1z"/>
<path d="M6888 5700 c-86 -26 -132 -86 -133 -169 0 -71 27 -126 84 -166 37
-26 51 -30 110 -30 55 0 74 4 104 25 77 53 100 154 54 241 -39 73 -146 122
-219 99z"/>
<path d="M9750 4830 c-305 -7 -424 -13 -487 -26 -16 -3 -23 -12 -23 -28 0 -26
17 -37 47 -31 55 13 422 25 736 25 197 1 369 5 382 10 32 12 32 38 -1 50 -27
11 -121 11 -654 0z"/>
<path d="M1050 4905 c-7 -8 -10 -22 -6 -30 4 -12 28 -15 128 -15 68 0 147 -3
175 -6 67 -8 119 2 128 24 13 36 -20 42 -221 42 -157 0 -194 -3 -204 -15z"/>
<path d="M1633 4603 c-7 -2 -13 -15 -13 -27 l0 -22 423 -12 c551 -16 556 -16
564 4 4 10 0 22 -10 29 -28 20 -919 47 -964 28z"/>
<path d="M10137 4329 c-88 -4 -163 -11 -169 -17 -5 -5 -8 -18 -6 -28 3 -17 14
-19 108 -17 58 1 302 5 543 8 368 6 440 10 453 22 11 12 12 18 3 29 -9 12 -78
14 -393 12 -209 0 -452 -4 -539 -9z"/>
<path d="M10168 4109 c-24 -13 -23 -36 1 -49 31 -16 423 -13 446 4 24 17 13
46 -17 46 -13 0 -111 2 -218 4 -117 3 -202 1 -212 -5z"/>
<path d="M1315 4276 c17 -8 75 -19 130 -25 55 -7 136 -18 180 -26 101 -18 225
-30 225 -21 0 16 -93 34 -260 51 -188 18 -258 25 -280 30 -22 4 -21 3 5 -9z"/>
<path d="M1060 4224 c-25 -11 -51 -14 -93 -9 -35 4 -57 2 -53 -3 9 -14 93 -35
118 -29 13 3 41 10 63 16 35 9 44 7 77 -14 31 -20 50 -25 104 -25 56 0 79 -6
133 -32 58 -29 76 -33 148 -33 76 0 105 7 90 21 -3 3 -48 10 -99 14 -67 6
-106 15 -138 31 -34 18 -62 24 -116 25 -59 1 -77 5 -110 28 -44 30 -74 32
-124 10z"/>
<path d="M5915 3179 c-108 -15 -231 -46 -288 -74 -103 -50 -116 -77 -26 -51
99 28 243 46 377 46 131 0 272 -16 272 -30 0 -4 -19 -15 -42 -25 -57 -22 -109
-55 -104 -64 3 -4 78 2 168 15 126 17 165 26 175 40 16 22 16 30 3 55 -36 66
-336 116 -535 88z"/>
<path d="M1805 3861 c-55 -3 -106 -10 -112 -14 -18 -11 -16 -44 1 -50 8 -3 79
-2 158 3 79 5 200 10 270 10 69 0 133 3 142 6 21 8 21 40 0 48 -18 7 -314 5
-459 -3z"/>
<path d="M9450 3748 c-199 -8 -237 -12 -248 -26 -10 -13 -9 -19 2 -31 23 -22
608 -3 632 20 14 15 14 18 -1 33 -18 18 -15 18 -385 4z"/>
<path d="M10050 3349 c-74 -4 -254 -10 -400 -13 -377 -8 -590 -22 -609 -41
-14 -13 -13 -17 2 -32 15 -16 32 -16 219 -5 112 7 278 12 371 12 206 0 694 28
719 41 22 12 23 35 2 43 -19 7 -121 6 -304 -5z"/>
<path d="M2945 3605 c-49 -7 -118 -14 -152 -14 -34 -1 -64 -5 -67 -9 -7 -11
188 -4 277 9 37 6 67 15 67 20 0 11 -8 10 -125 -6z"/>
<path d="M3258 3519 c-20 -5 -89 -13 -152 -18 -81 -6 -125 -14 -147 -28 -49
-28 -46 -44 2 -20 30 15 59 20 98 19 95 -3 291 30 291 49 0 11 -42 10 -92 -2z"/>
<path d="M1115 3301 c-24 -5 -30 -11 -30 -31 l0 -25 540 -6 c297 -3 605 -10
685 -14 130 -7 147 -6 159 9 39 46 -24 54 -529 61 -217 3 -485 7 -595 8 -110
2 -213 1 -230 -2z"/>
<path d="M10759 2756 c-4 -5 -575 -21 -1069 -32 -146 -3 -279 -7 -297 -10 -35
-5 -50 -31 -30 -51 12 -12 68 -13 363 -4 192 6 509 16 704 21 195 6 374 13
397 16 88 13 79 64 -12 64 -28 0 -54 -2 -56 -4z"/>
<path d="M1700 2797 c-3 -3 -101 -7 -219 -10 -221 -5 -247 -10 -225 -45 10
-15 32 -17 225 -15 254 3 318 9 326 29 3 9 2 19 -3 24 -10 10 -97 24 -104 17z"/>
<path d="M11374 2329 c-26 -41 -60 -89 -76 -107 -36 -42 -63 -97 -72 -144 -10
-53 1 -47 29 17 14 30 50 82 81 116 62 68 113 164 96 181 -7 7 -25 -12 -58
-63z"/>
<path d="M8947 2072 c38 -32 107 -61 218 -91 44 -12 109 -39 145 -60 107 -64
220 -106 220 -83 0 10 -60 49 -90 57 -14 4 -50 22 -80 39 -81 47 -124 63 -231
90 -53 13 -119 36 -147 50 -65 33 -76 32 -35 -2z"/>
<path d="M973 2237 c-17 -7 -35 -16 -40 -21 -5 -5 -1 -7 9 -3 60 21 88 19 143
-12 31 -17 77 -34 103 -38 26 -3 79 -18 117 -33 45 -18 100 -30 155 -34 47 -4
114 -14 150 -22 123 -29 244 -54 257 -54 26 0 12 20 -24 35 -62 26 -288 74
-381 81 -56 4 -110 15 -150 30 -35 14 -86 28 -115 31 -29 4 -74 17 -102 30
-55 25 -75 27 -122 10z"/>
<path d="M2930 2280 c-42 -19 -82 -30 -113 -30 -68 0 -236 -60 -245 -87 -8
-27 32 -24 120 10 51 19 112 37 136 40 27 3 66 21 107 47 36 23 65 44 65 46 0
6 1 6 -70 -26z"/>
<path d="M3216 2199 c-26 -17 -45 -34 -42 -36 6 -6 92 43 101 57 11 18 -11 10
-59 -21z"/>
<path d="M3385 2141 c-25 -11 -48 -37 -66 -76 -11 -23 -24 -32 -54 -38 -22 -5
-65 -15 -96 -23 -30 -8 -73 -14 -95 -14 -41 0 -132 -39 -155 -66 -9 -11 -9
-18 -1 -26 8 -8 26 -2 66 21 36 20 70 31 94 31 21 0 83 9 138 20 78 16 104 26
122 46 12 14 22 31 22 38 0 22 48 59 77 59 15 1 40 -3 56 -7 22 -7 27 -5 27 8
0 30 -86 47 -135 27z"/>
<path d="M2970 2100 c-47 -22 -94 -40 -106 -40 -12 0 -36 -10 -55 -23 -37 -25
-51 -57 -24 -57 9 0 13 4 10 10 -8 14 55 50 87 50 30 0 191 71 202 89 14 21
-29 11 -114 -29z"/>
<path d="M1360 1839 c25 -5 79 -19 120 -29 41 -11 120 -29 175 -41 55 -11 141
-38 190 -59 137 -58 196 -74 263 -71 38 2 26 30 -15 36 -76 10 -162 34 -252
69 -51 21 -140 45 -204 56 -61 10 -127 23 -145 29 -18 5 -65 12 -105 15 -65 5
-67 4 -27 -5z"/>
</g>
</svg>
