<?xml version="1.0" standalone="no"?>
<!DOCTYPE svg PUBLIC "-//W3C//DTD SVG 20010904//EN"
 "http://www.w3.org/TR/2001/REC-SVG-20010904/DTD/svg10.dtd">
<svg version="1.0" xmlns="http://www.w3.org/2000/svg"
 width="1264.000000pt" height="922.000000pt" viewBox="0 0 1264.000000 922.000000"
 preserveAspectRatio="xMidYMid meet">

<g transform="translate(0.000000,922.000000) scale(0.100000,-0.100000)"
fill="#000000" stroke="none">
<path d="M5027 7470 c-181 -45 -271 -223 -246 -488 9 -97 40 -242 70 -331 11
-30 18 -56 16 -57 -2 -2 -31 5 -65 16 -184 57 -435 73 -614 37 -237 -47 -444
-152 -612 -308 l-76 -71 -112 102 c-134 121 -266 222 -374 286 -349 207 -652
168 -739 -95 -23 -70 -16 -207 15 -306 47 -150 219 -465 361 -662 32 -45 59
-84 59 -87 0 -2 -25 -42 -56 -88 -231 -344 -299 -796 -178 -1180 57 -181 161
-352 291 -482 l80 -79 -24 -81 c-48 -166 -58 -240 -58 -451 0 -121 5 -230 13
-275 37 -210 114 -428 206 -584 l44 -75 -29 -33 c-143 -160 -208 -381 -164
-551 45 -172 152 -289 350 -382 388 -184 1044 -189 1400 -12 128 63 252 172
311 273 51 87 74 171 74 276 0 241 -134 449 -366 566 -151 76 -330 106 -634
106 -242 0 -406 -17 -615 -64 -153 -34 -133 -45 -211 115 -159 328 -187 734
-74 1067 22 64 40 129 40 144 0 41 -30 81 -126 169 -48 43 -107 106 -132 140
-263 357 -256 882 18 1279 127 184 294 316 508 401 105 42 115 53 165 172 177
420 682 641 1161 509 118 -33 258 -104 337 -171 35 -30 83 -71 106 -91 55 -47
89 -53 198 -38 120 17 210 17 325 0 372 -56 685 -284 841 -611 74 -156 93
-241 93 -420 0 -191 -13 -248 -102 -433 -62 -129 -58 -148 40 -250 90 -93 128
-147 178 -255 142 -302 147 -696 14 -1041 -41 -106 -43 -144 -9 -185 51 -59
118 -61 177 -4 37 35 100 200 130 337 l23 108 50 25 c75 38 220 130 308 195
43 32 81 58 85 58 4 0 19 -21 34 -48 36 -64 108 -136 166 -163 91 -45 274 -35
381 21 54 28 101 79 130 140 21 46 25 70 26 145 0 50 -4 115 -8 145 -8 51 -8
54 7 35 9 -11 26 -51 38 -90 77 -244 -50 -596 -348 -966 -260 -324 -689 -726
-934 -877 -114 -70 -158 -108 -169 -147 -25 -92 55 -175 143 -148 101 31 481
322 713 546 419 405 691 781 798 1101 67 199 79 360 40 526 -38 160 -150 311
-277 375 -39 19 -79 35 -89 35 -10 0 -21 6 -26 13 -7 12 -93 267 -93 278 0 3
53 22 119 43 l118 37 259 -46 c143 -25 293 -52 334 -60 41 -8 167 -30 280 -50
113 -20 241 -43 285 -52 141 -27 239 -1 327 89 206 211 243 789 89 1398 -177
699 -501 1170 -805 1170 -75 0 -129 -17 -194 -62 -39 -27 -523 -473 -898 -829
-74 -69 -101 -88 -138 -98 -62 -15 -312 -122 -406 -173 -292 -159 -417 -332
-436 -601 -12 -170 35 -384 111 -512 39 -65 122 -155 171 -185 30 -19 31 -23
53 -162 26 -170 65 -373 92 -482 11 -43 18 -84 15 -91 -10 -26 -270 -222 -319
-241 -11 -4 -15 16 -20 90 -19 291 -138 597 -299 772 l-38 41 31 74 c76 179
108 426 79 620 -56 385 -311 750 -657 941 -40 22 -73 46 -73 53 0 25 -103 264
-190 440 -211 429 -458 716 -683 795 -65 23 -160 32 -210 20z m157 -260 c167
-81 389 -376 559 -742 38 -82 67 -151 65 -153 -2 -2 -48 3 -103 12 -99 15
-357 14 -396 -2 -22 -8 -84 46 -108 94 -44 86 -116 284 -148 406 -22 82 -27
123 -27 225 -1 155 10 180 76 180 23 0 60 -9 82 -20z m3919 -391 c90 -47 217
-207 310 -395 190 -379 298 -828 299 -1239 1 -255 -30 -418 -97 -515 -71 -102
-184 -55 -327 134 -57 76 -186 303 -176 310 1 1 21 8 43 14 94 27 171 136 196
277 16 95 6 279 -21 375 -63 225 -196 372 -335 373 -43 0 -72 -9 -139 -41 -4
-2 -6 90 -4 204 5 231 18 313 69 421 49 102 98 124 182 82z m-6410 -285 c159
-41 396 -203 593 -406 l72 -73 -28 -60 c-27 -60 -29 -61 -98 -89 -77 -30 -214
-112 -295 -177 l-52 -41 -28 34 c-36 42 -177 273 -245 398 -60 113 -112 261
-112 322 0 97 62 126 193 92z m5935 -231 c0 -126 6 -245 16 -328 58 -446 201
-884 389 -1190 30 -49 54 -91 53 -93 -3 -2 -78 11 -491 84 -77 14 -172 31
-211 38 -90 16 -113 39 -189 191 -60 121 -114 289 -140 435 -23 135 -31 349
-15 448 l12 81 202 188 c110 103 237 222 281 265 44 43 83 78 86 78 4 0 7 -89
7 -197z m400 -395 c34 -37 80 -147 98 -232 20 -97 15 -232 -11 -294 -17 -41
-19 -42 -59 -40 -38 3 -42 6 -54 43 -28 83 -64 213 -82 295 -19 84 -19 85 1
106 10 11 26 42 35 70 17 50 31 74 43 74 4 0 17 -10 29 -22z m-1184 -533 c42
-210 115 -421 187 -539 18 -29 27 -52 21 -58 -21 -21 -250 -70 -352 -75 -168
-8 -276 25 -371 114 -143 133 -194 489 -95 657 68 115 215 215 481 327 l90 38
7 -167 c4 -117 14 -206 32 -297z m15 -1040 c131 -398 179 -610 152 -677 -14
-37 -64 -60 -141 -66 -60 -4 -68 -2 -98 23 -57 48 -106 162 -158 363 -33 130
-94 444 -94 486 0 20 4 21 145 21 l145 0 49 -150z m-3619 -2136 c234 -26 391
-120 461 -274 34 -74 33 -201 0 -270 -106 -217 -463 -336 -918 -304 -348 24
-608 126 -688 270 -26 46 -30 65 -30 124 1 127 87 269 217 357 63 43 168 69
368 92 229 27 383 28 590 5z"/>
<path d="M10395 7298 c-47 -27 -533 -450 -543 -473 -43 -95 40 -189 132 -151
32 13 450 361 532 442 36 37 46 72 32 121 -16 58 -99 92 -153 61z"/>
<path d="M10632 6231 c-442 -126 -463 -135 -477 -201 -14 -62 44 -130 110
-130 32 0 827 225 866 246 31 16 59 61 59 94 0 56 -58 111 -117 109 -15 0
-214 -53 -441 -118z"/>
<path d="M5697 5277 c-203 -66 -192 -354 18 -453 86 -41 202 -28 263 29 32 29
60 86 68 135 15 94 -63 225 -160 271 -57 26 -140 34 -189 18z"/>
<path d="M10320 5203 c-28 -10 -69 -56 -75 -83 -8 -35 16 -94 47 -114 12 -8
185 -47 382 -86 299 -58 365 -68 392 -60 38 13 70 46 79 81 8 34 -16 93 -47
113 -21 13 -712 157 -748 155 -8 0 -22 -3 -30 -6z"/>
<path d="M4715 5019 c-371 -48 -713 -299 -816 -599 -27 -80 -37 -229 -19 -309
53 -244 273 -432 575 -492 97 -19 300 -17 403 5 390 82 684 327 763 634 52
203 -1 392 -151 542 -89 89 -173 140 -295 179 -150 48 -294 61 -460 40z m353
-240 c147 -37 269 -128 321 -238 22 -47 26 -70 26 -141 0 -77 -4 -92 -36 -160
-20 -41 -54 -96 -75 -122 -91 -109 -254 -210 -414 -258 -107 -31 -322 -39
-423 -15 -328 77 -463 333 -314 595 39 69 155 184 231 229 110 65 269 118 406
135 61 7 202 -6 278 -25z"/>
<path d="M4785 4698 c-11 -6 -34 -24 -52 -41 -31 -29 -34 -30 -71 -19 -62 19
-91 15 -123 -17 -34 -34 -39 -83 -11 -119 10 -13 47 -33 82 -46 35 -13 66 -28
68 -34 6 -19 -41 -51 -84 -58 -24 -3 -57 -1 -75 5 -53 18 -87 14 -105 -14 -25
-38 -11 -73 39 -95 23 -11 54 -20 69 -20 24 0 29 -6 38 -42 34 -136 66 -199
122 -241 97 -72 234 -61 315 24 66 69 80 163 47 303 l-17 73 41 37 c23 21 44
47 47 57 19 59 -31 102 -86 74 -16 -9 -29 -20 -29 -25 0 -5 -20 -21 -43 -35
-46 -26 -95 -32 -128 -14 -19 10 -18 14 30 64 27 29 53 65 57 79 18 73 -67
140 -131 104z m80 -385 c41 -5 46 -9 55 -42 34 -122 18 -200 -46 -227 -78 -33
-138 7 -173 113 -28 82 -27 100 7 117 15 8 36 24 47 36 13 15 26 19 42 15 13
-3 43 -8 68 -12z"/>
<path d="M3481 4734 c-56 -15 -66 -21 -115 -63 -134 -120 -121 -338 24 -400
91 -39 190 -18 267 57 188 182 63 470 -176 406z"/>
</g>
</svg>
