<?xml version="1.0" standalone="no"?>
<!DOCTYPE svg PUBLIC "-//W3C//DTD SVG 20010904//EN"
 "http://www.w3.org/TR/2001/REC-SVG-20010904/DTD/svg10.dtd">
<svg version="1.0" xmlns="http://www.w3.org/2000/svg"
 width="1264.000000pt" height="922.000000pt" viewBox="0 0 1264.000000 922.000000"
 preserveAspectRatio="xMidYMid meet">

<g transform="translate(0.000000,922.000000) scale(0.100000,-0.100000)"
fill="#000000" stroke="none">
<path d="M7658 8410 c-187 -56 -236 -289 -135 -638 21 -71 22 -82 8 -77 -56
23 -254 65 -356 75 -221 23 -446 -7 -601 -79 l-63 -30 -43 52 c-167 204 -343
368 -453 423 -157 78 -295 43 -360 -91 -24 -48 -28 -68 -27 -138 0 -83 23
-204 63 -332 25 -84 119 -286 154 -331 l25 -33 -26 -38 c-40 -59 -99 -180
-127 -263 -83 -244 -83 -525 1 -713 25 -57 25 -60 8 -85 -65 -101 -116 -281
-116 -412 0 -234 86 -447 239 -593 l61 -58 -22 -42 c-18 -33 -23 -59 -23 -118
l1 -76 -74 -54 c-41 -30 -87 -70 -102 -89 -34 -43 -103 -171 -119 -222 -10
-31 -16 -37 -34 -33 -34 7 -365 54 -495 70 -97 12 -872 122 -2444 349 -136 20
-256 36 -268 36 -12 0 -35 -13 -51 -30 l-30 -29 6 -1553 c3 -854 8 -1568 11
-1585 6 -37 53 -79 106 -93 18 -5 251 -43 518 -85 889 -139 1328 -208 1435
-225 33 -5 193 -30 355 -55 162 -25 367 -57 455 -71 88 -14 203 -32 255 -40
52 -8 122 -19 155 -24 66 -11 265 -42 574 -90 171 -27 210 -30 242 -21 27 8
161 117 466 379 1380 1183 1686 1447 1700 1469 21 32 11 92 -20 119 -15 13
-51 25 -93 32 -38 7 -213 37 -389 67 -176 31 -376 65 -445 76 -112 19 -445 75
-670 114 -129 22 -458 75 -464 75 -3 0 -6 103 -6 229 l0 229 33 19 c22 14 39
17 52 12 11 -5 110 -22 220 -38 110 -17 243 -37 295 -45 52 -8 138 -20 190
-26 52 -7 163 -23 245 -36 83 -14 173 -27 200 -30 28 -3 122 -16 210 -30 88
-13 210 -31 270 -40 61 -8 216 -31 345 -49 129 -19 348 -50 485 -70 138 -20
419 -61 625 -91 684 -100 677 -99 704 -86 43 19 48 94 7 119 -18 11 -153 32
-896 139 -137 20 -251 37 -253 39 -1 1 3 26 9 55 17 80 5 354 -19 460 -45 190
-108 333 -185 417 l-53 58 14 45 c9 28 15 89 15 160 1 128 -15 187 -79 287
l-33 52 36 77 c19 43 49 130 65 193 28 104 31 132 31 271 1 209 -28 324 -108
418 l-27 32 27 65 c89 224 87 527 -5 747 -61 147 -168 282 -256 321 -36 17
-41 23 -53 75 -60 270 -228 616 -404 830 -201 246 -356 342 -489 302z m133
-200 c83 -54 244 -233 331 -370 95 -148 207 -412 258 -607 9 -35 33 -65 123
-155 124 -125 174 -200 211 -318 56 -177 53 -354 -9 -537 -19 -55 -35 -110
-35 -122 0 -11 14 -36 30 -54 23 -27 37 -63 62 -158 29 -112 32 -138 32 -264
-1 -159 -12 -218 -74 -382 -22 -59 -40 -117 -40 -129 0 -12 11 -35 23 -51 25
-30 47 -108 68 -237 10 -63 10 -97 0 -171 -14 -98 -11 -116 30 -160 24 -27
134 -289 164 -392 25 -86 55 -274 55 -345 0 -48 -18 -159 -29 -176 -5 -9 -93
1 -346 39 -187 28 -357 53 -377 56 -37 5 -37 6 -16 22 27 22 27 70 0 91 -11
10 -56 23 -99 29 -136 21 -265 50 -343 76 -41 14 -97 33 -125 42 -74 23 -279
128 -365 186 -153 103 -269 248 -286 355 -18 117 94 228 280 276 110 29 216
36 416 30 171 -6 199 -5 228 10 43 22 44 64 2 99 -53 45 -155 60 -354 54 -298
-9 -484 -70 -617 -200 l-50 -49 -50 12 c-129 31 -269 -36 -325 -155 -55 -115
-8 -246 107 -303 l40 -20 -30 -10 c-23 -8 -39 -29 -76 -102 -42 -81 -134 -200
-154 -200 -4 0 -7 64 -7 143 1 78 -2 153 -7 167 -13 45 -47 58 -198 80 -150
21 -205 29 -354 54 -49 8 -120 18 -157 21 -38 4 -68 9 -68 12 0 10 91 127 133
172 23 25 78 68 123 97 45 29 87 60 94 69 9 11 16 63 20 155 5 103 11 146 24
164 34 53 23 82 -67 170 -68 65 -92 97 -126 166 -58 119 -74 204 -68 365 5
124 40 337 59 360 5 5 15 19 22 29 13 19 15 17 57 -26 51 -51 96 -137 108
-204 10 -54 25 -71 67 -80 44 -9 74 20 84 82 19 117 96 256 179 323 35 29 43
32 38 16 -44 -148 -49 -231 -16 -328 62 -186 214 -307 451 -357 261 -56 522
15 699 190 120 119 166 233 157 395 -5 103 -45 191 -120 272 -135 144 -323
211 -558 200 -129 -6 -198 -24 -315 -81 -99 -49 -191 -125 -245 -204 l-34 -49
-16 30 c-10 19 -28 34 -54 43 -22 7 -51 21 -65 32 -39 28 -104 130 -126 197
-22 69 -40 95 -67 95 -41 0 -56 -18 -72 -93 -20 -90 -71 -198 -121 -254 -62
-73 -70 -61 -81 117 -24 405 200 809 538 970 35 17 98 48 141 70 151 77 280
109 472 117 206 8 398 -33 574 -122 86 -43 114 -44 152 -6 35 36 36 57 5 119
-51 98 -95 490 -65 569 27 71 74 81 150 33z m-1888 -214 c50 -21 133 -88 236
-189 104 -102 231 -248 231 -266 0 -6 -13 -11 -28 -11 -75 0 -227 -74 -321
-156 -35 -30 -65 -54 -66 -52 -2 2 -31 95 -64 208 -120 399 -117 521 12 466z
m1270 -1517 c94 -14 220 -74 281 -134 69 -67 101 -141 101 -235 0 -66 -4 -82
-34 -138 -101 -187 -363 -306 -600 -273 -114 16 -213 59 -284 122 -66 59 -100
113 -117 187 -48 207 166 429 455 471 86 12 117 12 198 0z m-983 -150 l47 -46
-37 -50 c-20 -28 -47 -74 -60 -102 -14 -28 -27 -51 -30 -51 -3 0 -14 16 -25
37 -11 20 -39 56 -62 80 l-43 44 39 52 c21 29 49 72 61 96 l22 45 21 -30 c11
-16 42 -50 67 -75z m-3270 -1740 c234 -33 846 -121 1360 -195 514 -74 1156
-166 1425 -204 270 -39 503 -73 519 -76 l29 -6 -6 -627 c-4 -344 -10 -1002
-13 -1461 -4 -459 -9 -838 -13 -841 -3 -4 -58 2 -121 12 -63 10 -160 26 -215
34 -55 8 -143 22 -195 30 -52 8 -138 22 -190 30 -52 8 -223 35 -380 59 -157
25 -647 101 -1090 170 -443 69 -832 130 -865 136 -33 5 -105 17 -160 25 -55 9
-140 22 -190 30 -49 8 -135 21 -190 30 -55 8 -114 18 -132 20 l-32 6 -3 187
c-2 103 -4 755 -6 1448 l-3 1261 23 -3 c13 -2 214 -31 448 -65z m3972 -86 c3
-49 8 -95 12 -105 18 -40 -129 -34 -170 7 -36 36 -31 71 15 115 32 31 98 65
133 69 3 1 8 -38 10 -86z m132 -309 c91 -102 194 -184 312 -249 140 -78 173
-93 329 -146 74 -25 120 -45 108 -47 -12 -2 -80 6 -150 18 -70 11 -144 22
-163 25 -19 2 -129 18 -245 35 -115 17 -262 38 -325 46 -146 20 -222 33 -227
38 -3 2 11 26 30 53 42 57 77 142 77 184 0 18 -9 39 -22 52 l-23 22 85 0 c60
0 94 5 115 17 17 9 32 16 35 17 3 1 32 -29 64 -65z m-381 -1125 c99 -17 184
-32 187 -34 5 -3 427 -74 800 -134 391 -63 565 -94 573 -101 4 -4 -239 -219
-540 -477 -301 -259 -701 -601 -887 -762 -187 -160 -343 -291 -348 -291 -9 0
-10 333 -1 356 3 8 223 201 489 430 428 368 484 420 484 445 0 33 -12 37 -170
64 -52 9 -138 25 -190 35 -52 10 -138 26 -190 34 -306 51 -406 69 -410 76 -10
15 1 390 11 390 5 0 92 -14 192 -31z m-124 -450 c100 -16 99 -15 30 -70 -45
-36 -70 -49 -88 -47 -24 3 -26 7 -29 66 -3 70 -9 67 87 51z m329 -63 c1 -2
-27 -27 -62 -56 l-66 -52 -70 13 c-39 8 -69 17 -68 21 2 4 31 29 66 56 l63 48
67 -13 c36 -8 68 -16 70 -17z m224 -35 c15 -6 7 -16 -49 -63 l-68 -55 -62 11
c-34 6 -64 14 -68 18 -4 3 22 29 57 57 62 51 64 51 117 45 30 -3 63 -9 73 -13z
m211 -40 c5 -5 -21 -34 -56 -65 l-64 -56 -57 11 c-31 7 -56 15 -56 18 1 3 31
30 67 59 65 52 69 53 112 47 26 -4 50 -10 54 -14z m-710 -75 c32 -6 58 -15 58
-19 0 -16 -124 -107 -146 -107 -43 0 -55 10 -55 49 0 29 7 42 32 63 38 31 34
31 111 14z m240 -47 c31 -7 57 -15 57 -19 0 -6 -53 -52 -112 -99 -14 -10 -30
-11 -88 -1 -39 7 -70 16 -68 20 5 14 130 110 143 110 6 0 37 -5 68 -11z m265
-54 c7 -3 -8 -22 -35 -47 -94 -83 -82 -78 -140 -65 -28 7 -54 15 -58 18 -3 4
24 31 61 61 67 55 67 55 113 46 25 -5 52 -11 59 -13z m-464 -125 c32 -7 54
-15 50 -19 -127 -108 -120 -104 -179 -96 -52 6 -55 8 -55 35 0 35 74 103 105
96 11 -2 46 -10 79 -16z m234 -47 c18 -3 31 -9 30 -13 -7 -18 -125 -110 -141
-110 -30 0 -108 22 -105 30 2 4 30 31 63 59 51 44 64 50 90 45 17 -3 45 -8 63
-11z m-388 -137 c0 -2 -7 -9 -15 -16 -12 -10 -15 -10 -15 4 0 9 7 16 15 16 8
0 15 -2 15 -4z m182 -40 l38 -11 -125 -108 -125 -108 0 75 0 75 62 50 c66 54
62 53 150 27z"/>
<path d="M7540 6835 c-78 -67 -90 -87 -65 -115 10 -11 24 -20 31 -20 22 0 153
113 160 138 8 27 -11 52 -40 52 -11 0 -50 -25 -86 -55z"/>
<path d="M6337 6823 c-4 -3 -7 -19 -7 -35 0 -24 8 -32 61 -60 34 -18 71 -38
81 -44 23 -14 58 -7 65 12 13 35 -8 62 -76 98 -65 34 -109 44 -124 29z"/>
<path d="M7933 6808 c-15 -17 -22 -41 -26 -91 -8 -114 -77 -224 -177 -286 -84
-52 -75 -108 27 -158 67 -33 140 -119 190 -223 43 -89 68 -120 100 -120 34 0
69 39 77 86 18 96 110 228 219 311 51 40 58 49 55 76 -3 29 -9 34 -76 62 -41
16 -92 45 -114 64 -49 42 -110 134 -138 210 -12 31 -29 64 -37 74 -23 25 -75
22 -100 -5z m140 -311 c21 -26 60 -64 88 -83 l49 -36 -61 -71 c-33 -38 -70
-90 -82 -114 -12 -23 -24 -43 -28 -43 -3 0 -23 25 -42 55 -20 30 -61 78 -91
107 l-53 53 43 50 c25 27 59 78 77 113 31 62 32 62 47 40 8 -12 32 -44 53 -71z"/>
<path d="M6995 6348 l-26 -33 -16 23 c-21 29 -87 31 -103 3 -19 -36 -11 -63
30 -101 47 -43 50 -57 14 -71 -32 -11 -55 -5 -79 21 -23 26 -61 26 -75 0 -15
-28 12 -76 53 -96 l32 -15 -3 -82 c-3 -74 -1 -87 25 -137 87 -165 294 -154
352 19 15 47 14 140 -3 189 -15 41 -15 41 20 76 35 35 44 72 22 94 -20 20 -43
14 -78 -23 -33 -34 -66 -43 -104 -29 -23 9 -20 21 19 68 55 68 45 126 -21 126
-25 0 -39 -8 -59 -32z m25 -243 c14 -8 34 -14 46 -15 20 0 42 -36 59 -97 17
-62 -46 -163 -103 -163 -107 0 -159 186 -74 265 31 29 38 30 72 10z"/>
<path d="M4220 3471 c-5 -11 -10 -26 -10 -34 0 -17 -42 -27 -116 -27 -72 0
-76 -10 -57 -128 l16 -93 -39 -33 c-38 -33 -38 -33 -36 -102 5 -160 44 -348
93 -451 65 -137 184 -169 283 -75 72 68 160 232 210 391 l27 84 -31 38 -30 38
41 81 c56 111 51 126 -60 170 -42 16 -51 17 -68 5 -20 -14 -20 -13 -16 28 6
51 -6 64 -94 101 -74 31 -99 32 -113 7z m106 -77 c19 -9 34 -21 34 -28 -1 -17
-37 -166 -42 -171 -2 -2 -14 -2 -26 2 -21 5 -22 11 -22 109 0 69 4 104 11 104
6 0 26 -7 45 -16z m-126 -114 l0 -70 -39 0 -40 0 -11 56 c-16 74 -10 84 45 84
l45 0 0 -70z m317 -25 l21 -15 -30 -55 c-16 -30 -31 -55 -33 -55 -13 0 -55 25
-55 33 0 17 55 107 65 107 6 0 20 -7 32 -15z m-222 -130 c75 -20 169 -70 200
-107 l24 -29 -20 -57 c-45 -124 -129 -282 -177 -332 -57 -59 -93 -71 -130 -43
-30 22 -92 134 -92 165 0 19 5 20 73 17 67 -4 72 -2 75 17 5 34 -24 48 -99 49
-76 0 -72 -3 -84 74 l-7 44 83 -5 c50 -4 99 -13 121 -23 31 -15 40 -16 53 -5
8 7 15 18 15 25 0 33 -120 75 -216 75 l-61 0 -7 51 c-8 59 -4 65 50 84 52 19
127 18 199 0z"/>
</g>
</svg>
